PathFileType	4	(X/Y/Z)	/Users/itak/Documents/Research/Walk-IL/dataset/trc/00519_00183.trc
DataRate	CameraRate	NumFrames	NumMarkers	Units	OrigDataRate	OrigDataStartFrame	OrigNumFrames
100.000000	100.000000	4	53	mm	100.000000	489	559
Frame#	Time	RPSI			LPSI			L3			STRN			T10			C7			CLAV			RBAK			LBAK			LSHO			LUPA			LAEL			LAOL			LWTS			LWPS			LFRA			LIFD			LHPS			LHTS			RSHO			RUPA			RAEL			RAOL			RWTS			RWPS			RFRA			RIFD			RHTS			RHPS			RBHD			LFHD			RFHD			LBHD			LHIP			RHIP			RASI			LASI			LKNE			LTHI			LANK			LTIP			LTOE			LMT1			LMT5			LHEE			RKNE			RTHI			RANK			RTIP			RTOE			RMT1			RMT5			RHEE			
		X1	Y1	Z1	X2	Y2	Z2	X3	Y3	Z3	X4	Y4	Z4	X5	Y5	Z5	X6	Y6	Z6	X7	Y7	Z7	X8	Y8	Z8	X9	Y9	Z9	X10	Y10	Z10	X11	Y11	Z11	X12	Y12	Z12	X13	Y13	Z13	X14	Y14	Z14	X15	Y15	Z15	X16	Y16	Z16	X17	Y17	Z17	X18	Y18	Z18	X19	Y19	Z19	X20	Y20	Z20	X21	Y21	Z21	X22	Y22	Z22	X23	Y23	Z23	X24	Y24	Z24	X25	Y25	Z25	X26	Y26	Z26	X27	Y27	Z27	X28	Y28	Z28	X29	Y29	Z29	X30	Y30	Z30	X31	Y31	Z31	X32	Y32	Z32	X33	Y33	Z33	X34	Y34	Z34	X35	Y35	Z35	X36	Y36	Z36	X37	Y37	Z37	X38	Y38	Z38	X39	Y39	Z39	X40	Y40	Z40	X41	Y41	Z41	X42	Y42	Z42	X43	Y43	Z43	X44	Y44	Z44	X45	Y45	Z45	X46	Y46	Z46	X47	Y47	Z47	X48	Y48	Z48	X49	Y49	Z49	X50	Y50	Z50	X51	Y51	Z51	X52	Y52	Z52	X53	Y53	Z53	

490	4.89	262.6706848144531	964.0330200195312	770.359375	386.3832092285156	965.9412231445312	773.477294921875	325.8092041015625	1024.39111328125	751.0955200195312	341.1881103515625	1201.404296875	967.7568969726562	317.5082702636719	1130.030395507812	734.505859375	319.5660400390625	1362.572631835938	774.650146484375	338.3333740234375	1295.055297851562	928.9456176757812	226.4575500488281	1238.080444335938	741.866455078125	401.7131042480469	1303.594970703125	742.7637939453125	485.8081359863281	1358.089233398438	822.0095825195312	544.6358032226562	1232.187622070312	807.03271484375	577.474853515625	1023.992248535156	824.120361328125	495.1085205078125	1009.459899902344	769.1875	558.6806640625	842.0533447265625	932.1221923828125	586.4642333984375	801.854736328125	851.4380493164062	585.0336303710938	940.8148193359375	847.4302368164062	558.9916381835938	684.3843383789062	945.7724609375	589.5383911132812	750.9495239257812	879.5634765625	582.3704833984375	765.958984375	942.6288452148438	177.4314575195312	1359.640747070312	845.1990966796875	119.2321014404297	1292.283203125	836.457275390625	69.06337738037109	1027.918701171875	845.7131958007812	105.5705718994141	1007.089233398438	795.6445922851562	92.42501831054688	826.8621215820312	951.8265380859375	49.88527679443359	801.9198608398438	875.6640014648438	63.93442153930664	972.822509765625	849.0912475585938	77.14473724365234	666.8052978515625	955.849365234375	62.59753799438477	736.748779296875	967.3046264648438	45.48769378662109	733.2059936523438	899.2353515625	230.6042785644531	1517.263793945312	846.4075317382812	408.55322265625	1592.417236328125	900.9517211914062	290.9281921386719	1588.386352539062	949.096435546875	373.6589050292969	1516.2431640625	773.4557495117188	519.1179809570312	896.1083984375	880.9886474609375	144.1551818847656	864.0601806640625	868.7900390625	203.6189575195312	908.626708984375	974.7618408203125	446.0916137695312	929.181884765625	972.0927124023438	490.0881958007812	478.1521301269531	900.6507568359375	510.8580627441406	635.2680053710938	911.1761474609375	504.9403076171875	48.84305572509766	801.8037719726562	500.2083435058594	329.55224609375	869.7767944335938	416.7618713378906	35.06985473632812	989.9146118164062	395.6828918457031	40.44768142700195	907.34130859375	498.3413391113281	41.16833114624023	911.542236328125	451.3149108886719	42.53452682495117	747.6255493164062	174.9989013671875	476.2049865722656	861.5682373046875	138.7720184326172	734.3464965820312	895.2876586914062	214.141845703125	46.31444549560547	785.4229736328125	196.1433563232422	333.0685424804688	855.1514892578125	256.3535461425781	40.64459991455078	985.3143310546875	294.2021484375	44.70039367675781	918.8799438476562	199.2864990234375	43.57343673706055	898.1015014648438	261.85693359375	37.33312225341797	733.2171630859375	
491	4.9	262.812255859375	964.0718994140625	770.4833374023438	386.5419006347656	965.9523315429688	773.700439453125	325.9271850585938	1024.383544921875	751.297607421875	341.2311096191406	1201.391967773438	968.0119018554688	317.5808715820312	1129.99365234375	734.6663818359375	319.59130859375	1362.55859375	774.8727416992188	338.355712890625	1295.039794921875	929.1834106445312	226.4430847167969	1238.014892578125	742.166259765625	401.6893615722656	1303.57421875	742.9818725585938	485.8009643554688	1358.073486328125	822.224609375	544.67724609375	1232.184814453125	807.2142333984375	577.522216796875	1023.964538574219	824.2781372070312	495.0484619140625	1009.427734375	769.4183349609375	558.7924194335938	842.0593872070312	932.292724609375	586.4463500976562	801.8262939453125	851.5911865234375	585.04638671875	940.7794189453125	847.57763671875	558.998046875	684.3605346679688	945.9963989257812	589.492919921875	750.9105834960938	879.68701171875	582.3963623046875	765.934326171875	942.7747802734375	177.4800872802734	1359.580322265625	845.4181518554688	119.3278350830078	1292.230102539062	836.6732177734375	69.13512420654297	1027.799438476562	846.19677734375	105.7673873901367	1007.001281738281	795.9942016601562	92.89112091064453	826.846923828125	952.3135375976562	50.12106323242188	801.83984375	876.253173828125	63.87166213989258	972.752685546875	849.626953125	77.41503143310547	666.791015625	956.558837890625	62.87215805053711	736.7268676757812	968.0025634765625	45.83157730102539	733.1460571289062	899.8453979492188	230.6596832275391	1517.25927734375	846.74169921875	408.7413940429688	1592.377807617188	900.9558715820312	291.1640319824219	1588.3935546875	949.3411254882812	373.5746765136719	1516.15185546875	773.5314331054688	519.1905517578125	896.03515625	881.3273315429688	143.9458465576172	863.731201171875	869.1887817382812	203.5835723876953	908.5023193359375	974.8831176757812	446.1038818359375	929.1397094726562	972.355224609375	490.1225891113281	478.1015319824219	900.8175659179688	510.7906188964844	635.2066040039062	911.4034423828125	504.9477844238281	48.83523178100586	801.8037719726562	500.2256774902344	329.515869140625	869.89697265625	416.7694091796875	35.06960296630859	989.9244995117188	395.672119140625	40.44385528564453	907.344970703125	498.3052978515625	41.1434440612793	911.5317993164062	451.3370666503906	42.54223251342773	747.6314086914062	174.8460540771484	476.2171020507812	861.1782836914062	138.7606658935547	734.2921142578125	895.2158203125	214.1515502929688	46.28250503540039	785.3949584960938	195.9793243408203	333.1158447265625	854.7246704101562	256.3446655273438	40.65707778930664	985.303466796875	294.1830749511719	44.72592163085938	918.861083984375	199.2630920410156	43.5775146484375	898.0852661132812	261.8394165039062	37.31256103515625	733.2137451171875	
492	4.91	262.973388671875	964.0960083007812	770.5700073242188	386.71337890625	965.9411010742188	773.9047241210938	326.0248107910156	1024.3740234375	751.499755859375	341.2907409667969	1201.377685546875	968.2622680664062	317.6604309082031	1129.9560546875	734.8408813476562	319.6313171386719	1362.548828125	775.0785522460938	338.3775329589844	1295.018188476562	929.4226684570312	226.4716796875	1237.967895507812	742.4467163085938	401.6777954101562	1303.55810546875	743.2062377929688	485.8104553222656	1358.058349609375	822.4586791992188	544.7401733398438	1232.1806640625	807.4263305664062	577.572265625	1023.931640625	824.4541015625	495.0341796875	1009.421569824219	769.6388549804688	558.8737182617188	842.03173828125	932.4379272460938	586.4170532226562	801.78564453125	851.7081298828125	585.05712890625	940.7373657226562	847.7159423828125	559.0064086914062	684.3111572265625	946.1332397460938	589.4368896484375	750.8584594726562	879.7549438476562	582.395751953125	765.8770141601562	942.8733520507812	177.5212860107422	1359.525634765625	845.6376342773438	119.4377822875977	1292.180908203125	836.8810424804688	69.17575836181641	1027.674194335938	846.7003173828125	105.9205551147461	1006.922790527344	796.3604736328125	93.35990905761719	826.8396606445312	952.8137817382812	50.38213729858398	801.7627563476562	876.8611450195312	63.74465560913086	972.6941528320312	850.2042236328125	77.72338104248047	666.7704467773438	957.2762451171875	63.19679260253906	736.7111206054688	968.6972045898438	46.20365905761719	733.0948486328125	900.46875	230.7670745849609	1517.25439453125	847.0602416992188	408.9424438476562	1592.337646484375	900.96875	291.3899230957031	1588.40576171875	949.56103515625	373.5091857910156	1516.05029296875	773.6265869140625	519.2332153320312	895.9561767578125	881.636474609375	143.7384338378906	863.41943359375	869.5654907226562	203.5513305664062	908.3973999023438	974.9786376953125	446.1237182617188	929.0977783203125	972.6085205078125	490.1492004394531	478.0442810058594	900.9918212890625	510.705078125	635.1527099609375	911.6395263671875	504.95849609375	48.82991027832031	801.8032836914062	500.2459716796875	329.4796447753906	870.0122680664062	416.7827758789062	35.07283020019531	989.9390869140625	395.6610107421875	40.43947601318359	907.3477172851562	498.2660522460938	41.11687850952148	911.520751953125	451.3573608398438	42.54819869995117	747.6364135742188	174.7317810058594	476.2345581054688	860.7904663085938	138.7380523681641	734.255859375	895.1395263671875	214.1656799316406	46.25331115722656	785.36865234375	195.8141784667969	333.1725158691406	854.3150634765625	256.3390808105469	40.66364288330078	985.2969970703125	294.1679382324219	44.74810028076172	918.8451538085938	199.2391052246094	43.58531951904297	898.0654907226562	261.8301696777344	37.29215240478516	733.2107543945312	
493	4.92	263.1488342285156	964.1026000976562	770.6292114257812	386.8889770507812	965.9113159179688	774.1092529296875	326.0984497070312	1024.36083984375	751.7046508789062	341.3668518066406	1201.36279296875	968.5077514648438	317.7502136230469	1129.9267578125	735.0225830078125	319.6853332519531	1362.541870117188	775.265869140625	338.3970336914062	1294.9912109375	929.6622314453125	226.5505981445312	1237.939453125	742.7000122070312	401.6841735839844	1303.545166015625	743.4382934570312	485.841796875	1358.042114257812	822.7112426757812	544.8211669921875	1232.171508789062	807.6676025390625	577.6255493164062	1023.894348144531	824.6456298828125	495.0652465820312	1009.440368652344	769.8490600585938	558.919677734375	841.9684448242188	932.5587158203125	586.3772583007812	801.7310791015625	851.7919311523438	585.0684204101562	940.6879272460938	847.8487548828125	559.0211791992188	684.239990234375	946.1875	589.3754272460938	750.7962646484375	879.7803344726562	582.3733520507812	765.7918701171875	942.9293823242188	177.5574645996094	1359.477905273438	845.8553466796875	119.5591659545898	1292.135864257812	837.080078125	69.20224761962891	1027.5458984375	847.2111206054688	106.0257797241211	1006.85302734375	796.7413940429688	93.82066345214844	826.8386840820312	953.327392578125	50.6663703918457	801.6870727539062	877.4799194335938	63.59834671020508	972.6412963867188	850.8017578125	78.11452484130859	666.7433471679688	957.9798583984375	63.57566833496094	736.7033081054688	969.3812866210938	46.61841201782227	733.0449829101562	901.097412109375	230.911865234375	1517.249145507812	847.3656005859375	409.1503601074219	1592.296752929688	900.9885864257812	291.6058654785156	1588.422485351562	949.7589721679688	373.4608459472656	1515.941528320312	773.740966796875	519.2617797851562	895.8932495117188	881.924560546875	143.5349426269531	863.1234130859375	869.927978515625	203.5255889892578	908.3119506835938	975.0543212890625	446.1495056152344	929.0551147460938	972.853759765625	490.1644897460938	477.97998046875	901.1758422851562	510.6112670898438	635.1053466796875	911.8793334960938	504.9702453613281	48.82707214355469	801.8025512695312	500.2652587890625	329.4438171386719	870.1229858398438	416.8004760742188	35.07831954956055	989.95703125	395.6494140625	40.43422317504883	907.349853515625	498.2288513183594	41.0921630859375	911.5110473632812	451.3736267089844	42.55156707763672	747.640380859375	174.6630249023438	476.2524108886719	860.4052124023438	138.7096557617188	734.2395629882812	895.06103515625	214.1777191162109	46.22986221313477	785.347412109375	195.6510314941406	333.2354125976562	853.9244995117188	256.3330993652344	40.66574096679688	985.29345703125	294.1552124023438	44.76729202270508	918.831787109375	199.2139892578125	43.59684371948242	898.042236328125	261.8279418945312	37.27135848999023	733.2078247070312	
